<?xml version="1.0" encoding="utf-8"?>
<!-- Generator: Adobe Illustrator 18.1.1, SVG Export Plug-In . SVG Version: 6.00 Build 0)  -->
<svg version="1.1" id="Layer_1" xmlns="http://www.w3.org/2000/svg" xmlns:xlink="http://www.w3.org/1999/xlink" x="0px" y="0px"
	 viewBox="0 0 852.7 203.3" enable-background="new 0 0 852.7 203.3" xml:space="preserve">
<path fill="#E02E2A" d="M102.9,101.2c0-52.1,40.8-94.6,92.2-97.4V3.7H3.1v195.2h191.9v-0.3C143.7,195.8,102.9,153.3,102.9,101.2z"/>
<g>
	<g>
		<path fill="#FFFFFF" d="M241.4,164.9c-14.3,8.1-30.2,12.1-47.6,12.1c-20.3,0-36.7-6.5-49.3-19.7c-12.5-13.1-18.8-30.4-18.8-52
			c0-22,7-40.1,20.9-54.2c13.9-14.1,31.6-21.2,52.9-21.2c15.5,0,28.5,2.5,39,7.5v18.5C227,48.6,213.4,45,197.6,45
			c-15.9,0-29,5.5-39.2,16.5c-10.2,11-15.3,25.2-15.3,42.7c0,18,4.7,32.1,14.2,42.4c9.5,10.3,22.3,15.4,38.5,15.4
			c11.1,0,20.7-2.2,28.9-6.6v-39.9h-31.2v-15.1h47.8V164.9z"/>
	</g>
</g>
<g>
	<g>
		<path fill="#FFFFFF" d="M307.2,130.4h-16.9V38.1H349v14.1h-41.9v23.9H343v14.1h-35.8V130.4z"/>
		<path fill="#FFFFFF" d="M394.4,123.3h-0.3c-0.9,1-2,2-3.3,3c-1.3,1-2.8,2-4.4,2.9s-3.5,1.6-5.5,2.2c-2,0.6-4.2,0.8-6.6,0.8
			c-3.2,0-6.1-0.5-8.9-1.5c-2.8-1-5.1-2.4-7.1-4.3c-2-1.9-3.5-4.1-4.7-6.8c-1.1-2.6-1.7-5.6-1.7-8.9c0-3.6,0.7-6.8,2-9.7
			c1.3-2.9,3.1-5.3,5.5-7.2s5.2-3.5,8.4-4.5c3.3-1,6.9-1.6,10.8-1.6c2.9,0,5.6,0.2,8,0.6c2.4,0.4,4.6,0.8,6.4,1.3v-2.7
			c0-1.6-0.3-3.1-0.8-4.5c-0.5-1.4-1.4-2.7-2.6-3.9c-1.2-1.1-2.7-2-4.6-2.7c-1.9-0.7-4.2-1-6.9-1c-3.3,0-6.6,0.4-9.9,1.1
			c-3.3,0.7-6.9,1.8-10.8,3.3V66.5c3.4-1.5,6.9-2.6,10.7-3.4c3.8-0.8,7.7-1.2,11.9-1.2c4.9,0,9.1,0.6,12.8,1.8
			c3.7,1.2,6.7,2.8,9.2,4.9c2.5,2.1,4.3,4.6,5.5,7.4c1.2,2.9,1.8,6,1.8,9.3v25.2c0,4.4,0,8.2,0.1,11.4c0.1,3.2,0.2,6,0.3,8.5H395
			L394.4,123.3z M393,101.9c-1.6-0.4-3.4-0.7-5.4-1c-2-0.3-4.1-0.4-6.1-0.4c-4,0-7.2,0.8-9.5,2.4c-2.3,1.6-3.5,4-3.5,7.3
			c0,1.5,0.3,2.8,0.8,4c0.5,1.1,1.2,2.1,2.1,2.8c0.9,0.7,1.9,1.3,3.1,1.7c1.2,0.4,2.5,0.6,3.8,0.6c1.7,0,3.2-0.2,4.7-0.7
			c1.5-0.4,2.8-1,4.1-1.7c1.2-0.7,2.4-1.4,3.3-2.2c1-0.8,1.8-1.6,2.5-2.4V101.9z"/>
		<path fill="#FFFFFF" d="M460.7,76.5h-1.4c-5,0-9.4,0.7-13.2,2.2c-3.8,1.5-6.7,3.8-8.8,6.9v44.8H421V63.5h13.5l1.5,9.3h0.3
			c1.9-3.4,4.6-6.1,8-8c3.4-2,7.4-2.9,12.2-2.9c1.7,0,3.1,0.1,4.3,0.3V76.5z"/>
		<path fill="#FFFFFF" d="M498,118.9c3.2,0,6.5-0.3,9.9-1c3.4-0.6,6.9-1.6,10.5-2.8v13c-2.1,0.9-5.4,1.8-9.7,2.6
			c-4.4,0.8-8.9,1.2-13.6,1.2c-4.7,0-9.2-0.6-13.5-1.8c-4.3-1.2-8-3.2-11.1-5.9c-3.2-2.7-5.7-6.2-7.6-10.6
			c-1.9-4.3-2.8-9.6-2.8-15.7c0-6.1,0.9-11.4,2.6-15.9c1.7-4.6,4.1-8.3,7-11.3c2.9-3,6.3-5.2,10.1-6.7c3.8-1.5,7.7-2.2,11.8-2.2
			c4.2,0,8.1,0.6,11.7,1.9c3.6,1.3,6.6,3.3,9.2,6.1c2.6,2.8,4.6,6.3,6.1,10.7s2.2,9.5,2.2,15.4c0,2.3-0.1,4.3-0.2,5.9h-43.8
			c0.2,3.1,0.9,5.7,2.1,7.9c1.1,2.2,2.7,4,4.5,5.3c1.9,1.4,4,2.3,6.5,3C492.4,118.6,495.1,118.9,498,118.9z M491.4,74.6
			c-2.1,0-3.9,0.4-5.5,1.1c-1.6,0.8-3,1.8-4.2,3.1c-1.2,1.3-2.1,2.8-2.8,4.6c-0.7,1.7-1.2,3.6-1.4,5.6h26.3c0-2-0.3-3.8-0.8-5.6
			c-0.5-1.7-1.3-3.3-2.3-4.6s-2.3-2.3-3.9-3.1C495.3,75,493.5,74.6,491.4,74.6z"/>
		<path fill="#FFFFFF" d="M544.3,72.8h0.3c1-1.4,2.2-2.7,3.7-4.1c1.5-1.3,3.1-2.5,5-3.5c1.9-1,4-1.8,6.2-2.4
			c2.3-0.6,4.7-0.9,7.3-0.9c2.4,0,4.8,0.3,7.1,0.8c2.3,0.6,4.4,1.4,6.2,2.6c1.9,1.2,3.6,2.7,5,4.6c1.4,1.9,2.6,4.1,3.4,6.7
			c0.5,1.4,0.8,3,0.9,4.7c0.2,1.7,0.2,3.6,0.2,5.8v43.4h-16.3V89.5c0-1.8-0.1-3.3-0.2-4.6c-0.1-1.3-0.4-2.4-0.8-3.4
			c-0.8-2.1-2.1-3.6-3.8-4.6c-1.7-0.9-3.7-1.4-6.1-1.4c-3.2,0-6.2,0.7-9.1,2.2c-2.9,1.5-5.5,3.7-7.8,6.5v46h-16.4V63.5h13.5
			L544.3,72.8z"/>
		<path fill="#FFFFFF" d="M635.2,118.9c3.2,0,6.5-0.3,9.9-1c3.4-0.6,6.9-1.6,10.5-2.8v13c-2.1,0.9-5.4,1.8-9.7,2.6
			c-4.4,0.8-8.9,1.2-13.6,1.2c-4.7,0-9.2-0.6-13.5-1.8s-8-3.2-11.1-5.9c-3.2-2.7-5.7-6.2-7.6-10.6c-1.9-4.3-2.8-9.6-2.8-15.7
			c0-6.1,0.9-11.4,2.6-15.9c1.7-4.6,4.1-8.3,7-11.3c2.9-3,6.3-5.2,10.1-6.7c3.8-1.5,7.7-2.2,11.8-2.2c4.2,0,8.1,0.6,11.7,1.9
			c3.6,1.3,6.6,3.3,9.2,6.1c2.6,2.8,4.6,6.3,6.1,10.7c1.4,4.3,2.2,9.5,2.2,15.4c0,2.3-0.1,4.3-0.2,5.9h-43.8
			c0.2,3.1,0.9,5.7,2.1,7.9c1.1,2.2,2.7,4,4.5,5.3c1.9,1.4,4,2.3,6.5,3C629.7,118.6,632.3,118.9,635.2,118.9z M628.7,74.6
			c-2.1,0-3.9,0.4-5.5,1.1c-1.6,0.8-3,1.8-4.2,3.1s-2.1,2.8-2.8,4.6c-0.7,1.7-1.2,3.6-1.4,5.6h26.3c0-2-0.3-3.8-0.8-5.6
			c-0.5-1.7-1.3-3.3-2.3-4.6c-1-1.3-2.3-2.3-3.9-3.1S630.8,74.6,628.7,74.6z"/>
		<path fill="#FFFFFF" d="M694.2,107.1L677,130.4h-18.8l26.4-34.1l-24.8-32.8H679l15.6,22.1l15.9-22.1h19.3l-25.5,32.7l26.2,34.1
			h-19.1L694.2,107.1z"/>
		<path fill="#FFFFFF" d="M762.9,132.1c-6.7,0-12.3-1.1-16.7-3.4s-7.8-5.3-10-9.2c-1.2-2.1-2.1-4.3-2.7-6.8
			c-0.6-2.5-0.9-5.2-0.9-8.3V63.5H749v39.1c0,2.3,0.2,4.2,0.5,5.8c0.3,1.6,0.8,3,1.4,4.2c1.1,2,2.7,3.5,4.7,4.5c2,1,4.4,1.5,7.2,1.5
			c2.9,0,5.5-0.6,7.6-1.7c2.1-1.1,3.7-2.8,4.7-5c1.1-2.2,1.6-5.2,1.6-9V63.5h16.3v40.8c0,5.4-0.9,10-2.8,13.7
			c-1.1,2.1-2.4,4-4.1,5.8s-3.7,3.2-5.9,4.4c-2.3,1.2-4.9,2.2-7.7,2.8C769.6,131.8,766.4,132.1,762.9,132.1z"/>
		<path fill="#FFFFFF" d="M833.2,111c0-1.4-0.4-2.6-1.2-3.5c-0.8-0.9-1.9-1.7-3.2-2.3c-1.3-0.6-2.9-1.2-4.6-1.6
			c-1.7-0.5-3.5-0.9-5.4-1.4c-2.4-0.6-4.7-1.4-6.9-2.2c-2.2-0.8-4.2-2-5.8-3.3s-3-3.1-4-5.2c-1-2.1-1.5-4.7-1.5-7.7
			c0-3.7,0.7-7,2-9.7c1.3-2.7,3.1-5,5.4-6.8c2.3-1.8,4.9-3.1,7.9-4c3-0.9,6.2-1.3,9.6-1.3c4.1,0,7.9,0.3,11.5,1
			c3.6,0.7,6.8,1.5,9.7,2.6v13.3c-1.5-0.5-3.1-1-4.8-1.4c-1.7-0.4-3.4-0.8-5.1-1.1c-1.7-0.3-3.4-0.6-5.1-0.8
			c-1.7-0.2-3.3-0.3-4.8-0.3c-1.9,0-3.6,0.2-4.9,0.6c-1.3,0.4-2.4,0.9-3.2,1.5c-0.8,0.6-1.4,1.3-1.8,2.1c-0.4,0.8-0.6,1.6-0.6,2.5
			c0,1.5,0.4,2.8,1.2,3.7c0.8,1,1.9,1.7,3.3,2.3c1.4,0.6,2.9,1.1,4.5,1.5c1.6,0.4,3.1,0.8,4.6,1.1c2.3,0.6,4.6,1.2,6.9,2
			c2.3,0.8,4.4,1.9,6.2,3.3c1.8,1.4,3.3,3.2,4.5,5.5s1.8,5.1,1.8,8.5c0,3.8-0.7,7.1-2.1,9.9c-1.4,2.8-3.4,5.1-6,7s-5.6,3.2-9.2,4.1
			c-3.6,0.9-7.5,1.3-11.8,1.3c-4.2,0-8-0.3-11.4-1c-3.4-0.7-6.2-1.5-8.4-2.5v-13.2c3.6,1.3,6.9,2.2,9.9,2.7c3,0.5,5.9,0.7,8.5,0.7
			c2,0,3.9-0.1,5.7-0.4c1.7-0.3,3.3-0.8,4.5-1.4c1.3-0.6,2.3-1.5,3-2.4C832.8,113.5,833.2,112.4,833.2,111z"/>
	</g>
</g>
<g>
	<g>
		<path fill="#FFFFFF" d="M98.7,42.6H38.3v51.2H84v15.6H38.3v65.5H20.9v-148h77.8V42.6z"/>
	</g>
</g>
<g>
	<path fill="#E02E2A" d="M738.8,170.7h-8.9v-4.3h13.7v18.9c-0.4,0.2-1,0.4-1.8,0.7c-0.8,0.2-1.7,0.4-2.7,0.6c-1,0.2-2.1,0.4-3.3,0.5
		c-1.2,0.1-2.3,0.2-3.4,0.2c-3.4,0-6.3-0.5-8.9-1.4c-2.6-0.9-4.7-2.2-6.5-3.9c-1.7-1.7-3.1-3.7-4-6.1c-0.9-2.4-1.3-5.1-1.3-8
		c0-3.2,0.5-6.1,1.5-8.7s2.4-4.8,4.3-6.7c1.9-1.9,4.1-3.3,6.8-4.3c2.6-1,5.6-1.5,8.7-1.5c0.9,0,1.7,0,2.6,0.1s1.7,0.2,2.5,0.3
		c0.8,0.1,1.5,0.3,2.2,0.5c0.7,0.2,1.2,0.4,1.7,0.6v4.2c-1.2-0.4-2.5-0.7-4-1s-3-0.4-4.6-0.4c-2.2,0-4.3,0.3-6.4,1
		c-2,0.7-3.8,1.7-5.3,3.1c-1.5,1.4-2.8,3.1-3.7,5.1c-0.9,2.1-1.4,4.5-1.4,7.2c0,2.7,0.4,5.1,1.1,7c0.8,2,1.8,3.6,3.2,4.9
		c1.4,1.3,3.1,2.2,5.1,2.9c2,0.6,4.2,0.9,6.6,0.9c1.1,0,2.2-0.1,3.3-0.2s2.1-0.3,2.9-0.5V170.7z"/>
	<path fill="#E02E2A" d="M765,162.4h-0.4c-1.1,0-2.1,0.1-3.2,0.3s-2,0.5-2.9,0.9c-0.9,0.4-1.7,0.9-2.5,1.5c-0.7,0.6-1.3,1.3-1.8,2.1
		v19.4h-4.5v-27.8h3.5l0.9,4.4h0.1c0.4-0.7,1-1.4,1.7-2c0.7-0.6,1.4-1.2,2.2-1.6c0.8-0.5,1.7-0.8,2.7-1.1c1-0.3,2-0.4,3.1-0.4
		c0.2,0,0.4,0,0.6,0c0.2,0,0.4,0,0.5,0V162.4z"/>
	<path fill="#E02E2A" d="M791.8,172.7c0,2.2-0.3,4.2-0.9,6c-0.6,1.8-1.5,3.3-2.6,4.6s-2.5,2.3-4.1,3c-1.6,0.7-3.4,1.1-5.4,1.1
		c-2.1,0-3.9-0.4-5.5-1.1c-1.6-0.7-3-1.7-4.2-3s-2-2.8-2.6-4.6c-0.6-1.8-0.9-3.8-0.9-6c0-2.2,0.3-4.2,0.9-6c0.6-1.8,1.5-3.3,2.6-4.6
		s2.5-2.3,4.2-3c1.6-0.7,3.4-1.1,5.5-1.1c2,0,3.9,0.4,5.5,1.1c1.6,0.7,3,1.7,4.2,3c1.1,1.3,2,2.8,2.6,4.6
		C791.5,168.5,791.8,170.5,791.8,172.7z M787,172.7c0-1.7-0.2-3.2-0.6-4.6s-1-2.5-1.8-3.4c-0.8-0.9-1.6-1.6-2.7-2.1
		s-2.2-0.7-3.4-0.7c-1.2,0-2.4,0.2-3.4,0.7c-1,0.5-1.9,1.2-2.7,2.1s-1.3,2.1-1.8,3.4c-0.4,1.3-0.6,2.9-0.6,4.6
		c0,1.7,0.2,3.2,0.6,4.6c0.4,1.3,1,2.5,1.8,3.4c0.8,0.9,1.7,1.6,2.7,2.1c1,0.5,2.2,0.7,3.4,0.7c1.2,0,2.4-0.2,3.4-0.7
		c1-0.5,1.9-1.2,2.7-2.1c0.8-0.9,1.3-2,1.8-3.4C786.8,175.9,787,174.4,787,172.7z"/>
	<path fill="#E02E2A" d="M807.1,187.3c-1.4,0-2.7-0.2-3.9-0.5c-1.2-0.3-2.2-0.8-3-1.3c-0.9-0.6-1.6-1.2-2.2-2s-1.1-1.7-1.4-2.6
		c-0.3-0.7-0.5-1.5-0.6-2.3c-0.1-0.8-0.2-1.8-0.2-2.8v-17.1h4.5v17c0,1.5,0.2,2.8,0.6,3.9c0.5,1.2,1.2,2.1,2.3,2.8c1,0.7,2.4,1,4,1
		c1.7,0,3.1-0.4,4.1-1.1c1-0.7,1.8-1.7,2.2-3c0.3-1,0.5-2.1,0.5-3.5v-17h4.5v17.1c0,0.9-0.1,1.8-0.2,2.6c-0.1,0.8-0.3,1.6-0.5,2.2
		c-0.4,1-0.8,1.8-1.4,2.6c-0.6,0.8-1.4,1.5-2.3,2.1s-1.9,1-3.1,1.4C809.9,187.1,808.6,187.3,807.1,187.3z"/>
	<path fill="#E02E2A" d="M848.9,172.3c0,1.9-0.2,3.6-0.6,5.1c-0.4,1.5-0.9,2.8-1.5,3.9s-1.4,2-2.2,2.8c-0.8,0.8-1.7,1.4-2.6,1.8
		c-0.9,0.5-1.8,0.8-2.7,1c-0.9,0.2-1.8,0.3-2.6,0.3c-1.7,0-3.2-0.3-4.4-0.8c-1.3-0.6-2.4-1.4-3.4-2.5h-0.1v16.2h-4.5v-41.4h3.4
		l1,3.2h0.1c0.3-0.4,0.6-0.8,1-1.1c0.4-0.4,0.9-0.8,1.6-1.2c0.7-0.4,1.5-0.8,2.4-1.1c0.9-0.3,2-0.5,3.1-0.5c1.6,0,3.1,0.3,4.5,0.8
		c1.5,0.5,2.7,1.4,3.8,2.5s2,2.6,2.7,4.4C848.5,167.5,848.9,169.7,848.9,172.3z M844.1,172.4c0-1.6-0.2-3.1-0.5-4.4
		s-0.9-2.4-1.5-3.3c-0.7-0.9-1.5-1.6-2.5-2.1s-2.2-0.7-3.5-0.7c-0.9,0-1.8,0.1-2.6,0.4c-0.8,0.3-1.5,0.6-2.1,1
		c-0.6,0.4-1.2,0.8-1.6,1.3c-0.5,0.4-0.8,0.8-1.1,1.2v14.5c1,1,2.1,1.7,3.3,2.3c1.2,0.6,2.5,0.8,4,0.8c0.9,0,1.8-0.2,2.7-0.5
		c1-0.3,1.8-0.9,2.7-1.7s1.5-2,2-3.4C843.9,176.4,844.1,174.6,844.1,172.4z"/>
</g>
</svg>
